/* XPM */
static const char *ADD_SUB_DISABLED_XPM[] = {
"16 16 4 1",
"  c None",
"# c #858585",
"+ c #939393",
". c #BBBBBB",
"      +##+      ",
"      #..#      ",
"      #..#      ",
"      #..#      ",
"      #..#      ",
" +#####..#####+ ",
" #............# ",
" #............# ",
" +#####..#####+ ",
"      #..#      ",
"      #..#      ",
" +#####..#####+ ",
" #............# ",
" #............# ",
" +############+ ",
"                "
};
