/* XPM */
static const char *APP_ICON_XPM[] = {
"16 16 64 1",
"A c #a4ba9c",
"B c #a46264",
"C c #c49e8c",
"D c #64363c",
"E c #e4928c",
"F c #cc7e74",
"G c #dca294",
"H c #ac5654",
"I c #846054",
"J c #64be8c",
"K c #cc7a74",
"L c #747e6c",
"M c #ec9a94",
"N c #944244",
"O c #bc6e6c",
"P c #6c5a4c",
"Q c #64826c",
"R c #944e4c",
"S c #844a44",
"T c #9cbe9c",
"U c #ac5a5c",
"V c #54a684",
"W c #d4827c",
"X c #bc5e5c",
"Y c #7c3234",
"Z c #ac625c",
"a c #8c4846",
"b c #6cc09c",
"c c #944647",
"d c #74cfa5",
"e c #6cc093",
"f c #64b894",
"g c #844141",
"h c #bc6a64",
"i c #8c5050",
"j c #64caa4",
"k c #64a584",
"l c #7c3a3c",
"m c #9c4e4c",
"n c #64c29c",
"o c #c4726c",
"p c #6ccaa4",
"q c #643e3c",
"r c #b4625c",
"s c #ec9694",
"t c #7c363c",
"u c #547a64",
"v c #943a44",
"w c #a43e44",
"x c #ac8a7c",
"y c #3c2e2c",
"z c #9c625c",
"0 c #9c3a44",
"1 c #a45e5c",
"2 c #9c4a4c",
"3 c #d4aa9c",
"4 c #9c4244",
"5 c #9c4644",
"6 c #6cba94",
"7 c #7c3e3c",
"8 c #6ca684",
"9 c #6cc69c",
"+ c #042224",
"/ c #74c9a3",
"99//9/dnnd/99/99",
"//99/9VxxV9//bff",
"99//bLcEEcLb/999",
"JJeduvFMMFvud///",
"99/k1ihWWhi1k/99",
"//nSXiaZZaiXSb//",
"9/9P5OYaaYO4Pnff",
"//bIg2oUUo2gI6be",
"e9kwalrhhrlaw8d/",
"e9f7cRtaatRclf/9",
"//dQ0ogmmgo0Qd//",
"99dfagNHHNgaf/bb",
"//9/CDqccqDC/bff",
"9e9pGB+yy+BGp///",
"eebjAsKzzKsAj/99",
"////jT3333Tj/p/9"
};
