/* XPM */
static const char *APP_ICON_XPM[] = {
"16 16 48 1",
"0 c #e8c8cc",
"1 c #ee9ea2",
"2 c #e0e0d2",
"3 c #889888",
"4 c #98687c",
"5 c #8e6e5e",
"6 c #908082",
"7 c #606860",
"8 c #b8b0aa",
"9 c #965658",
"A c #f0b0c6",
"B c #deceae",
"C c #e4a484",
"D c #e6b6a8",
"E c #c66e7a",
"F c #663e36",
"G c #68505a",
"H c #c098a4",
"I c #f47478",
"J c #f898c0",
"K c #944434",
"L c #f6869c",
"M c #ec8c7e",
"N c #f26254",
"O c #c24a32",
"P c #383838",
"Q c #f05030",
"R c #c45c56",
"S c #b0c8b0",
"T c #be8680",
"U c #c8809e",
"V c #d8f8d8",
"W c #88e02c",
"X c #58a816",
"Y c #34462a",
"Z c #5a4e38",
"a c #a87e20",
"b c #6c5828",
"c c #866820",
"d c #bea458",
"e c #66be18",
"f c #9cec3e",
"g c #524830",
"h c #745e30",
"i c #4e8422",
"j c #3a7810",
"k c #b0f850",
"l c #8ed63c",
"0123345674746802",
"289A2BBBCD819EF2",
"8GEH11DIIDAJEEE6",
"KHEIILLIILLIIMK5",
"5LNIILLIILIII9OP",
"89IIILNQNRQIIKPS",
"HFKKFOOOKFOFFKOT",
"6D9OOFKKRNFOIKOK",
"5IIRNNOQIIKIQIFF",
"8UENIIKIRRKKIKK3",
"H59ORRK9KFFKFFGD",
"V25PKFKFPFPFPT02",
"WXYPZabcddbZPYef",
"fXPPbgchdchbPPXf",
"WWiPPPPPhPPPPjWe",
"kfWe3gPPPPg3lfWf"
};
