/* XPM */
static const char *APP_XPM[] = {
"48 48 9 1",
"# c #383838",
"  c #d8f8d8",
"= c #287000",
"+ c #60c808",
". c #b0f850",
"N c #a07818",
"n c #c09038",
"P c #f05030",
"p c #f898c0",
"+.+.+...+.+.+...+.+.+...+.+.+...+.+.+...+.+.+...",
".+=+.+.+.+=+.+.+.+=+.+.+.+=+.+.+.+=+.+.+.+=+.+.+",
"+.+.=.+.+.+.=.+.+.+.=.+.+.+.=.+.+.+.=.+.+.+.=.+.",
"...+.+.....+.+.....+.+.....+.+.....+.+.....+.+..",
"+.+.+.+.+.+.+.+.+.+.+.+.+.+.+.+.+.+.+.+.+.+.+.+.",
".+.+.+=+.+.+.+=+.+.+.+=+.+.+.+=+.+.+.+=+.+.+.+=+",
"....+.+.....+.+.....+.+.....+.+.....+.+.....+.+.",
"...+.+.....+.+.....+.+.....+.+.....+.+.....+.+..",
"+.+.+...p p p     ###  ## ### ##p p p   +.+.+...",
".+=+.+.+ pPp  ####ppP##p##pp##pp###  p p.+=+.+.+",
"+.+.=.+.p p P#p  pP  P  P   #  p#P#P#Pp +.+.=.+.",
"...+.+..   ##ppp       PP pPp pPp#pp##  ...+.+..",
"+.+.+.+.p #pP## p p p PppP p pppp#pP#p# +.+.+.+.",
".+.+.+=+ ###ppppPpPp PpPPpP pppppPp#pP#p.+.+.+=+",
"....+.+.#Pp #PpppPpPpPpPPpPpppPpppPPP#P#....+.+.",
"...+.+..P##pppPPPpppppPppPpppPpPPPp #P# ...+.+..",
"+.+.+...#PpppPPppPpppppPPpppPpPppP#pP###+.+.+...",
".+=+.+.+ #PpPPpPPpPpPpPppPpPpPpPPpP#PP##.+=+.+.+",
"+.+.=.+.p ##pPpPPpPppPPPPpPpPPpPPpP#### +.+.=.+.",
"...+.+.. #PpPpPppPppPPPPPP#PPPPppP#P##  ...+.+..",
"+.+.+.+.p##P#P#PP#PP#PP#PPP#PP#PP#P#PP# +.+.+.+.",
".+.+.+=+ p###PP###P#PPPP#####P#####PP#Pp.+.+.+=+",
"....+.+. #pP###PP###PP#P#PPP##P#PPP#PP#P....+.+.",
"...+.+..#p  pPPPPPP###P#PppP#PPPppP#P#P#...+.+..",
"+.+.+...#PppPpPpPPPPPPPPpPPpP#PpPPpP#P##+.+.+...",
".+=+.+.+ #PPpP#PPppP#PPPpPPpP#PpPPpP###P.+=+.+.+",
"+.+.=.+.p #pppPPpPPpP#pPPppP#PPPppP#P## +.+.=.+.",
"...+.+.. #ppP#pPpPPpP#Pp#PP##P##PP#P#P# ...+.+..",
"+.+.+.+.p##P#pPPPppP#Pp#P###P#P###P###  +.+.+.+.",
".+.+.+=+ p ##PP##PP#P#P##PP####PP####pPp.+.+.+=+",
"....+.+.    ####P##P#P#P###P##P#### p p ....+.+.",
"...+.+..   p P###P##P#############Pp p  ...+.+..",
"+.+.+...+.+.=#####nN#N#NNnnN#N#####=+...+.+.+...",
".+=+.+.+.+==#####nNN#NNNn n #Nn#####=+.+.+=+.+.+",
"+.+.=.+.+.+=####NN##NNn#n NNn#NN####=.+.+.+.=.+.",
"...+.+.....=#######NN##NNn#NN#######=+.....+.+..",
"+.+.+.+.+.+.=###########Nn#########=+.+.+.+.+.+.",
".+.+.+=+.+.+.=####################=+.+=+.+.+.+=+",
"....+.+.....+.+=################=...+.+.....+.+.",
"...+.+.....+.+.+  N##########N  ...+.+.....+.+..",
"+.+.+...+.+.+...+.+.+...+.+.+...+.+.+...+.+.+...",
".+=+.+.+.+=+.+.+.+=+.+.+.+=+.+.+.+=+.+.+.+=+.+.+",
"+.+.=.+.+.+.=.+.+.+.=.+.+.+.=.+.+.+.=.+.+.+.=.+.",
"...+.+.....+.+.....+.+.....+.+.....+.+.....+.+..",
"+.+.+.+.+.+.+.+.+.+.+.+.+.+.+.+.+.+.+.+.+.+.+.+.",
".+.+.+=+.+.+.+=+.+.+.+=+.+.+.+=+.+.+.+=+.+.+.+=+",
"....+.+.....+.+.....+.+.....+.+.....+.+.....+.+.",
"...+.+.....+.+.....+.+.....+.+.....+.+.....+.+.."
};
