/* XPM */
static const char *APP_XPM[] = {
"48 48 6 1",
"  c #70c8a0",
"+ c #489828",
"= c #287050",
". c #e89890",
"- c #a04848",
"# c #383838",
"                                                ",
"                                                ",
"                                                ",
"                      ####                  =   ",
"                     #....#              =  =  =",
"                  ####....####            =   = ",
"                ###-#......#-###                ",
"                #..#-......-#..#                ",
"              ######-......-######              ",
"   +         #--#..-........-..#--#             ",
"+  +  +      #-#-..-........-..-#-#             ",
" +   +       ###----........----###             ",
"            #--#-#---......---#-#--#            ",
"           #---##-..--....--..-##---#           ",
"          ##-..-#-..---..---..-#-..-##          ",
"         #---..-#--------------#-..---#         ",
"         #------#----#-..-#----#------#         ",
"         #-------####--..--####-------#         ",
"         #----------#------#----------#         ",
"         ##----..---#--##--#---..----##     =   ",
"         ###-#-..----##--##----..-#-###  =  =  =",
"          #-##--------------------##-#    =   = ",
"         #--#-------..----..-------#--#         ",
"        #---#---#--...----...--#---#---#        ",
"        #-.--####--..------..--####--.-#        ",
"   +    #------#-------..-------#------#        ",
"+  +  + #------#-------..-------#------#        ",
" +   +  #-#----#----#------#----#----#-#        ",
"         ##--#--####-#----#-####--#--##         ",
"         #--#---------####---------#--#         ",
"         #--#--..--#--------#--..--#--#         ",
"          ###--..--#--------#--..--###          ",
"           #--------#------#--------#           ",
"           #-------#---..---#-------#           ",
"           #----###----------###----#           ",
"            #####--------------#####        =   ",
"             ..#----#------#----#..      =  =  =",
"             ..######------######..       =   = ",
"            ...######-#--#-######...            ",
"            ...########--########...            ",
"             ...################...             ",
"   +         ....-############-....             ",
"+  +  +      .....--########--.....             ",
" +   +        ......-##--##-......              ",
"               ..................               ",
"                ................                ",
"                  ............                  ",
"                                                "
};
