/* XPM */
static const char *APP_XPM[] = {
"48 48 4 1",
"# c #383838",
"= c #287000",
"+ c #60c808",
". c #b0f850",
"+.+.+...+.+.+...+.+.+...+.+.+...+.+.+...+.+.+...",
".+=+.+.+.+=+.+.+.+=+.+.+.+=+.+.+.+=+.+.+.+=+.+.+",
"+.+.=.+.+.+.=.+.+.+.=.+.+.+.=.+.+.+.=.+.+.+.=.+.",
"...+.+.....+.+.....+.+.....+.+.....+.+.....+.+..",
"+.+.+.+.+.+.+.+.+.+.+.+.+.+.+.+.+.+.+.+.+.+.+.+.",
".+.+.+=+.+.+.+=+.+.+.+=+.+.+.+=+.+.+.+=+.+.+.+=+",
"....+.+.....+.+.....+.+.....+.+.....+.+.....+.+.",
"...+.+.....+.+.....+.+.....+.+.....+.+.....+.+..",
"+.+.+...+.+.+..##.+.+...+.+.+..##.+.+...+.+.+...",
".+=+.+.+.+=+.+#.+#=+.+.+.+=+.+#.+#=+.+.+.+=+.+.+",
"+.+.=.+.+.+.=.#.+#+.=.+.+.+.=.#.+#+.=.+.+.+.=.+.",
"...+.+.....+.#++==#+.+.....+.#++==#+.+.....+.+..",
"+.+.+.+.+.+###+#==###.+.+.+###+#==###.+.+.+.+.+.",
".+.+.+=+.+#.#+=#===#=#=+.+#.#+=#===#=#=+.+.+.+=+",
"....+.+...###=#==#=###+...###=#==#=###+.....+.+.",
"...+.+....#++##=###==#....#++##=###==#.....+.+..",
"+.+.+...+#+=+++#======#.+#+=+++#======#.+.+.+...",
".+=+.+.+.###++======###+.###++======###+.+=+.+.+",
"+.+.=.+.+.#++#=+#=#==#..+.#++#=+#=#==#..+.+.=.+.",
"...+.+...#+###=##==##=#..#+###=##==##=#....+.+..",
"+.+.+.+.#++==######=##=##++==######=##=#+.+.+.+.",
".+.+.+=+##+#=+=###=#=#####+#=+=###=#=###.+.+.+=+",
"....+.+..##+++====#=###..##+++====#=###.....+.+.",
"...+.+..#++#=+++=#=#=#=##++#=+++=#=#=#=#...+.+..",
"+.+.+...+#+=+++#======#.+#+=+++#======#.+.+.+...",
".+=+.+.+.###++======###+.###++======###+.+=+.+.+",
"+.+.=.+.+.#++#=+#=#==#..+.#++#=+#=#==#..+.+.=.+.",
"...+.+...#+###=##==##=#..#+###=##==##=#....+.+..",
"+.+.+.+.#++==######=##=##++==######=##=#+.+.+.+.",
".+.+.+=+##+#=+=###=#=#####+#=+=###=#=###.+.+.+=+",
"....+.+..##+++====#=###..##+++====#=###.....+.+.",
"...+.+..#++#=+++=#=#=#=##++#=+++=#=#=#=#...+.+..",
"+.+.+...##==#=========####==#=========##+.+.+...",
".+=+.+.+.#=#==#==#==#=#+.#=#==#==#==#=#+.+=+.+.+",
"+.+.=.+.+.##=##=###=##..+.##=##=###=##..+.+.=.+.",
"...+.+....+###+#==###+.+..+###+#==###+.+...+.+..",
"+.+.+.+..++++#++=+#++++..++++#++=+#++++.+.+.+.+.",
".+.+.+=+.+++#++.=++#+++..+++#++.=++#+++..+.+.+=+",
"....+.+.+.+++=#+=#==++..+.+++=#+=#==++......+.+.",
"...+.+...+..+++#++++...+.+..+++#++++...+...+.+..",
"+.+.+...+.+.+...+.+.+...+.+.+...+.+.+...+.+.+...",
".+=+.+.+.+=+.+.+.+=+.+.+.+=+.+.+.+=+.+.+.+=+.+.+",
"+.+.=.+.+.+.=.+.+.+.=.+.+.+.=.+.+.+.=.+.+.+.=.+.",
"...+.+.....+.+.....+.+.....+.+.....+.+.....+.+..",
"+.+.+.+.+.+.+.+.+.+.+.+.+.+.+.+.+.+.+.+.+.+.+.+.",
".+.+.+=+.+.+.+=+.+.+.+=+.+.+.+=+.+.+.+=+.+.+.+=+",
"....+.+.....+.+.....+.+.....+.+.....+.+.....+.+.",
"...+.+.....+.+.....+.+.....+.+.....+.+.....+.+.."
};
