/* XPM */
static const char *BLOCKS_DISABLED_XPM[] = {
"16 16 4 1",
"# c #757575",
"+ c #838383",
"- c #B2B2B2",
". c #DADADA",
"-.-.-..##.-.-...",
".-+-.-#.-#+-.-.-",
"-.-.+.#.-#-.+.-.",
"...-.#--++#-.-..",
"-.-###-#++###.-.",
".-#.#-+#+++#+#+-",
"..###+#++#+###-.",
"..#--##+###++#..",
"##++#+++++++++##",
".#+#++#++#++#+#-",
"-.##+##+###+##..",
"..-###-#++###-.-",
".----#--+-#----.",
".---#--.+--#---.",
"-.---+#-+#++--..",
".-..---#----...-"
};
