/* XPM */
static const char *CHANGE_DISABLED_XPM[] = {
"16 16 9 1",
"  c None",
"# c #888888",
"+ c #919191",
". c #C6C6C6",
"g c #DADADA",
"G c #B2B2B2",
"@ c #838383",
"r c #E6E6E6",
"R c #CBCBCB",
"##########      ",
"#GgGgGggg# .+   ",
"#gG@GgGgG#.++++.",
"#GgGg@gGg# .+ .+",
"#gggGgGgg#     .",
"#GgGgGgGg#      ",
"#gGgGgG@G#######",
"#ggggGgGg#RrRrR#",
"#gggGgGgg#rRrRr#",
"##########RrRrR#",
"      #RrRrRrRr#",
".     #rRrRrRrR#",
"+. +. #RrRrRrRr#",
".++++.#rRrRrRrR#",
"   +. #RrRrRrRr#",
"      ##########"
};
