/* XPM */
static const char *CHANGE_ROOF_DISABLED_XPM[] = {
"16 16 10 1",
"  c None",
"# c #888888",
"+ c #919191",
"- c #C6C6C6",
"@ c #757575",
". c #ECECEC",
"y c #9D9D9D",
"Y c #BBBBBB",
"b c #858585",
"B c #A7A7A7",
"##########      ",
"#@@@@@@@@# -+   ",
"#@YYYYYYY#-++++-",
"#@yyyyyyy# -+ -+",
"#@y@@@@yy#     -",
"#@@YYYY@@#      ",
"#@.YYYyy@#######",
"#@.yYyYy@#....@#",
"#@.YYYyy@#BBBB@#",
"##########BBBB@#",
"      #BBBBBBB@#",
"-     #BBBBBBB@#",
"+- +- #BBBBBBB@#",
"-++++-#bbbbbbb@#",
"   +- #@@@@@@@@#",
"      ##########"
};
