/* XPM */
static const char *COLL_BOTTOM_LEFT_DARK_XPM[] = {
"16 16 4 1",
"  c None",
"+ c #B8B8F0",
"# c #E8E8FF",
". c #F95959",
"                ",
" +###########+  ",
" #     #     #  ",
" #     #     #  ",
" #     #     #  ",
" #     #     #  ",
" #     #     #  ",
" ######+######  ",
" #.....#     #  ",
" #.....#     #  ",
" #.....#     #  ",
" #.....#     #  ",
" #.....#     #  ",
" +###########+  ",
"                ",
"                "
};
