/* XPM */
static const char *COLL_BOTTOM_RIGHT_XPM[] = {
"16 16 4 1",
"  c None",
"+ c #202048",
"# c #000018",
". c #F95959",
"                ",
" +###########+  ",
" #     #     #  ",
" #     #     #  ",
" #     #     #  ",
" #     #     #  ",
" #     #     #  ",
" ######+######  ",
" #     #.....#  ",
" #     #.....#  ",
" #     #.....#  ",
" #     #.....#  ",
" #     #.....#  ",
" +###########+  ",
"                ",
"                "
};
