/* XPM */
static const char *CURSOR_DISABLED_XPM[] = {
"16 16 3 1",
"  c None",
". c #BEBEBE",
"# c #505050",
".#.#.#.# # # # #",
"#.......        ",
"........       #",
"#.......        ",
"........       #",
"#.......        ",
"........       #",
"#.......        ",
"               #",
"#               ",
"               #",
"#               ",
"               #",
"#               ",
"               #",
"# # # # # # # # "
};
