/* XPM */
static const char *EVENT_XPM[] = {
"16 16 5 1",
"  c None",
". c #FFFFFF",
"+ c #FF8080",
"% c #800000",
"# c #000000",
"%%%%%%%%########",
"%+++++++.......#",
"%+%%%%%%######.#",
"%+%+++++     #.#",
"%+%+++++     #.#",
"%+%+++++     #.#",
"%+%+++++     #.#",
"%+%+++++     #.#",
"#.#          #.#",
"#.#          #.#",
"#.#          #.#",
"#.#          #.#",
"#.#          #.#",
"#.############.#",
"#..............#",
"################",
};
