/* XPM */
static const char *EVENTS_XPM[] = {
"16 16 4 1",
"  c None",
"# c #000000",
"+ c #5048F8",
". c #F89850",
"     ######     ",
"    #.++++.#    ",
"   #++....++#   ",
"   #..#++#..#   ",
"  #++#+##+#++#  ",
"  #+#.#..#.#+#  ",
"   ##......##   ",
"###...#..#...###",
"#++#..#..#..#++#",
" ####......#### ",
"   ##+####+##   ",
"  #..#.##.#..#  ",
"  #..#.##.#..#  ",
"   ####++####   ",
"    #++##++#    ",
"     ##  ##     "
};
