/* XPM */
static const char *GAMEBOY_XPM[] = {
"16 16 14 1",
"  c None",
"# c #881420",
"$ c #480008",
"@ c #303234",
"+ c #F86484",
"- c #FF1838",
"= c #E40C2C",
". c #C4CCB4",
"G c #354395",
"M c #12AC44",
"E c #D80A72",
"B c #DE1247",
"Y c #EDED37",
"N c #5C6050",
"   ##########   ",
"   #@@@@@@@@#   ",
"   #@......@#   ",
"   #@GME.BY@#   ",
"   #@......@#   ",
"   #@..NN..@#   ",
"   #@......@#   ",
"   #@@@@@@@@#   ",
"   #+------=#   ",
"   #+$-----=#   ",
"   #$$$----$#   ",
"   #+$---$-=#   ",
"   #+------=#   ",
"   #+-$##$==#   ",
"   #+=======#   ",
"    ########    "
};
