/* XPM */
static const char *GRID_DISABLED_XPM[] = {
"16 16 3 1",
"  c None",
"+ c #686868",
"# c #515151",
"                ",
" +###########+  ",
" #  #  #  #  #  ",
" #  #  #  #  #  ",
" ###+##+##+###  ",
" #  #  #  #  #  ",
" #  #  #  #  #  ",
" ###+##+##+###  ",
" #  #  #  #  #  ",
" #  #  #  #  #  ",
" ###+##+##+###  ",
" #  #  #  #  #  ",
" #  #  #  #  #  ",
" +###########+  ",
"                ",
"                "
};
