/* XPM */
static const char *HEX_DARK_XPM[] = {
"16 16 3 1",
"  c None",
". c #777777",
"# c #E8E8FF",
"                ",
"                ",
"                ",
"                ",
"#  # #### #   # ",
"#. #.#....#.  #.",
"#. #.#.    # # .",
"####.###    # . ",
"#..#.#...  # #  ",
"#. #.#.   # . # ",
"#. #.#### #.  #.",
" .  . .... .   .",
"                ",
"                ",
"                ",
"                "
};
