/* XPM */
static const char *IDS_XPM[] = {
"16 16 3 1",
"  c None",
". c #999999",
"# c #000018",
"                ",
"                ",
"                ",
"                ",
"##### ###       ",
" .#...#..#      ",
"  #.  #.  #  ## ",
"  #.  #.  #.# ..",
"  #.  #.  #. #  ",
"  #.  #. # .  # ",
"##### ### . ## .",
" ..... ...   .. ",
"                ",
"                ",
"                ",
"                "
};
