/* XPM */
static const char *LOAD_PALETTES_XPM[] = {
"16 16 13 1",
"  c None",
"# c #8B5C00",
"+ c #A97D26",
". c #FAD894",
"@ c #809191",
"- c #FFFFFF",
"% c #BEA678",
"$ c #A58351",
"= c #A0A0A0",
"& c #505050",
"^ c #E1E185",
"* c #D4D45E",
", c #F8F7CD",
" ++##########   ",
" #.++.......#   ",
" #...++@@@@@@@@ ",
" #....+-------@ ",
" #....+--%%%--@ ",
" #....+-%-,*%-@ ",
" #....+-%,^^%-@ ",
" #....+-%*^*%-@ ",
" #....+--$^$--@ ",
" #....+--$,$--@ ",
" #....+--==&--@ ",
" #....+--=-&--@ ",
" #....+---&=--@ ",
" ++...+-------@ ",
"   ++.+@@@@@@@@ ",
"     ++         "
};
