/* XPM */
static const char *NEW_DISABLED_XPM[] = {
"16 16 4 1",
"  c None",
". c #FAFAFA",
"+ c #EAEAEA",
"# c #AAAAAA",
"  #########+    ",
"  #...++++##+   ",
"  #....+++#.#+  ",
"  #.....++####  ",
"  #......++++#  ",
"  #.......+++#  ",
"  #........++#  ",
"  #.........+#  ",
"  #..........#  ",
"  #..........#  ",
"  #..........#  ",
"  #..........#  ",
"  #..........#  ",
"  #..........#  ",
"  #..........#  ",
"  ############  "
};
