/* XPM */
static const char *PASTE_DISABLED_XPM[] = {
"16 16 6 1",
"  c None",
". c #AAAAAA",
"# c #969696",
"- c #FFFFFF",
"@ c #BDBDBD",
"= c #E4E4E4",
"      @@@@      ",
"  ###@@==@@###  ",
"  #.@======@.#  ",
"  #.########.#  ",
"  #....@@@@@@#  ",
"  #....@----@@  ",
"  #....@----@-@ ",
"  #....@----@@@@",
"  #....@-------@",
"  #....@-------@",
"  #....@-------@",
"  #....@-------@",
"  #....@-------@",
"  #....@@@@@@@@@",
"  #..........#  ",
"  ############  ",
};
