/* XPM */
static const char *PRIORITY_XPM[] = {
"16 16 5 1",
"  c None",
". c #68D8D8",
"- c #56BABA",
"+ c #327E7E",
"# c #206060",
" ..-+......-+.. ",
"..-##+....-##+..",
".-####+..-####+.",
"-######+-######+",
"###+-######+-###",
"##+..-####+..-##",
"#+....-##+....-#",
"+......-+......-",
"...-+......-+...",
"..-##+....-##+..",
".-####+..-####+.",
"-######+-######+",
"###+-######+-###",
"##+..-####+..-##",
"#+....-##+....-#",
" ......-+...... "
};
