/* XPM */
static const char *ROOF_DISABLED_XPM[] = {
"16 16 5 1",
"  c None",
"# c #757575",
"+ c #B0B0B0",
"- c #DADADA",
". c #ECECEC",
" ############## ",
"##...........-##",
"##.---+---+--+##",
"##.---+---+--+##",
"##.---+---+--+##",
"##.---+---+--+##",
"##.---+---+--+##",
"##.---+---+--+##",
"##.---+---+--+##",
"##.---+---+--+##",
"##.---+---+--+##",
"##.---+---+--+##",
"##-+++++++++++##",
"################",
"#-++++++++++++-#",
"################"
};
