/* XPM */
static const char *RULERS_DISABLED_XPM[] = {
"16 16 7 1",
"  c None",
". c #D4D4D4",
", c #BCBCBC",
"- c #B1B1B1",
"+ c #A8A8A8",
"= c #949494",
"# c #6C6C6C",
"  ,++,          ",
"  +..+          ",
",+#-.#+=+=+=+=+,",
"+.=..#.-.-.-.-.+",
"=-#-.#---------=",
"+#=..##########+",
"  #-.#          ",
"  =..#          ",
"  #-.#          ",
"  =..#          ",
"  #-.#          ",
"  =..#          ",
"  #-.#          ",
"  =..#          ",
"  +##+          ",
"                "
};
