/* XPM */
static const char *SHOW_DISABLED_XPM[] = {
"16 16 28 1",
". c #A9A9A9",
", c #989898",
"# c #A0A0A0",
"a c #D0D0D0",
"b c #C0C0C0",
"c c #E4E4E4",
"d c #ECECEC",
"e c #EEEEEE",
"f c #DADADA",
"g c #B0B0B0",
"h c #BEBEBE",
"i c #F8F8F8",
"j c #C5C5C5",
"k c #D3D3D3",
"l c #A3A3A3",
"m c #E5E5E5",
"n c #CACACA",
"o c #B4B4B4",
"p c #9B9B9B",
"q c #BABABA",
"r c #D2D2D2",
"s c #BCBCBC",
"t c #D9D9D9",
"u c #B2B2B2",
"v c #A5A5A5",
"w c #B7B7B7",
"x c #D5D5D5",
"y c #C8C8C8",
"p######pl......l",
"gh#yo#y#.uuxxwu.",
"gm#efge#.udcciw.",
"#iokmhk#.uiuuju.",
"#efsmfs#.uiuuju.",
"#ai#yi##.udcciw.",
"#oy#oy##.uuxxwu.",
"p######pl......l",
"........,,,,,,,,",
"..rrrq..,voaavv,",
"..irki..,oiatev,",
"..irkm..,tnvveo,",
"..irri..,tnvveo,",
"..irri..,oiatev,",
"..rrrb..,voaavv,",
"........,,,,,,,,"
};
