/* XPM */
static const char *SHOW_DISABLED_XPM[] = {
"16 16 3 1",
"  c None",
". c #B6B6B6",
"# c #515151",
"                ",
"                ",
"                ",
"                ",
" ###  ####      ",
"# ..# #...#     ",
"#.  #.#.  #. ## ",
"#.  #.#### .# ..",
"#.  #.#...#  #  ",
"#.  #.#.  #.  # ",
" ### .#### .## .",
"  ...  ....  .. ",
"                ",
"                ",
"                ",
"                "
};
