/* XPM */
static const char *SHOW_XPM[] = {
"16 16 32 1",
". c #7CC27C",
", c #8B89EC",
"# c #C67FC7",
"a c #CEC8FB",
"b c #FCA294",
"c c #C7F1E4",
"d c #F17E7F",
"e c #E7EEFC",
"f c #F0CAE8",
"g c #C79AD7",
"h c #DCA6DC",
"i c #FBF9EE",
"j c #A4DA9C",
"k c #F7BED4",
"l c #7CBA7C",
"m c #F6DCE6",
"n c #CCBEFC",
"o c #A9A9FC",
"p c #BC7EBC",
"q c #FC968C",
"r c #FCBEBC",
"s c #E49ED4",
"t c #CCD8FC",
"u c #7DCF84",
"v c #9796FC",
"w c #DCEEC4",
"x c #B8E6BC",
"y c #E1B5E1",
"z c #90D080",
"A c #F6E8F8",
"B c #D696DC",
"C c #D4F6F4",
"p######pl......l",
"gh#yB#y#.uuxxzu.",
"gm#AfgA#.uCwciz.",
"#iBkmhk#.uiuuju.",
"#Afsmfs#.uiuuju.",
"#ai#yi##.uCwciz.",
"#By#By##.uuxxzu.",
"p######pl......l",
"dddddddd,,,,,,,,",
"ddrrrqdd,voaavv,",
"ddirkidd,oiatAv,",
"ddirkmdd,tnvveo,",
"ddirridd,tnvveo,",
"ddirridd,oiatAv,",
"ddrrrbdd,voaavv,",
"dddddddd,,,,,,,,"
};
