/* XPM */
static const char *WARP_XPM[] = {
"16 16 25 1",
". c #CF7FCF",
"# c #B67FB6",
", c #FFFFFF",
"$ c #000000",
"a c #FFFFF7",
"b c #FFFFEF",
"c c #FFEAE7",
"d c #FFD4DF",
"e c #F7FFFF",
"f c #F7BFD7",
"g c #EFFFFF",
"h c #EFBFE7",
"i c #EFAACF",
"j c #E7EAFF",
"k c #E794DF",
"l c #E794CF",
"m c #DFD4FF",
"n c #DF7FCF",
"o c #D7BFF7",
"p c #D77FD7",
"q c #D77FCF",
"r c #CFAAEF",
"s c #CF94E7",
"t c #CF7FDF",
"u c #CF7FD7",
"################",
"#..............#",
"#..............#",
"#jal..m,cq.tgcq#",
"#m,i.tg,al.r,d.#",
"#r,f.sehei.o,f.#",
"#secqrakgf.mal.#",
"#ujbnmcpjdujbn.#",
"#.,,,,,,,,,,,,,#",
"#.,$$,,$$$,$$$,#",
"#.,,$,,,,$,,,$,#",
"#.,,$,,$$$,,$$,#",
"#.,,$,,$,,,,,$,#",
"#.,$$$,$$$,$$$,#",
"#.,,,,,,,,,,,,,#",
"################"
};
