/* XPM */
static const char *ZOOM_DISABLED_XPM[] = {
"16 16 7 1",
"  c None",
"# c #A1A1A1",
"= c #CACACA",
"^ c #E0E0E0",
". c #EEEEEE",
"$ c #919191",
"+ c #BDBDBD",
"        #####   ",
"       #=^..=#  ",
"      #^^.....# ",
"     #=^^.....=#",
"     #^^^^^^^^^#",
"     #^^^....^^#",
"     #^^......^#",
"     #=^......=#",
"     =#^......# ",
"    =#=#=^^$$$  ",
"   =#=#=###$+$  ",
"  =#=#=  $$$+$$$",
" =#=#=   $+++++$",
" #=#=    $$$+$$$",
" =#=       $+$  ",
"           $$$  "
};
